<?xml version="1.0" encoding="UTF-8" standalone="no"?>
<!-- Generator: Gravit.io -->
<svg xmlns="http://www.w3.org/2000/svg" xmlns:xlink="http://www.w3.org/1999/xlink" style="isolation:isolate" viewBox="0 0 25 25" width="25" height="25"><defs><clipPath id="_clipPath_BwpvGA0fzclbOGuHGyemT1ltAvdgrpTi"><rect width="25" height="25"/></clipPath></defs><g clip-path="url(#_clipPath_BwpvGA0fzclbOGuHGyemT1ltAvdgrpTi)"><path d=" M 0.357 12.46 C 0.357 5.583 5.654 0 12.178 0 C 18.703 0 24 5.583 24 12.46 C 24 19.337 18.703 24.92 12.178 24.92 C 5.654 24.92 0.357 19.337 0.357 12.46 Z " fill="rgb(216,0,39)"/><g id="Group"><path d=" M 7.285 5.936 L 8.665 10.182 L 13.13 10.182 L 9.518 12.806 L 10.897 17.053 L 7.285 14.428 L 3.673 17.053 L 5.053 12.806 L 1.44 10.182 L 5.905 10.182 L 7.285 5.936 Z " fill="rgb(255,218,68)"/><path d=" M 15.982 20.059 L 14.627 19.075 L 13.272 20.059 L 13.79 18.467 L 12.435 17.483 L 14.11 17.483 L 14.627 15.89 L 15.144 17.483 L 16.819 17.483 L 15.464 18.467 L 15.982 20.059 Z " fill="rgb(255,218,68)"/><path d=" M 19.515 15.195 L 17.841 15.195 L 17.324 16.788 L 16.806 15.195 L 15.132 15.195 L 16.486 14.211 L 15.969 12.619 L 17.324 13.603 L 18.678 12.619 L 18.161 14.211 L 19.515 15.195 Z " fill="rgb(255,218,68)"/><path d=" M 19.515 9.183 L 18.161 10.167 L 18.678 11.76 L 17.324 10.776 L 15.969 11.76 L 16.486 10.167 L 15.132 9.183 L 16.806 9.183 L 17.324 7.591 L 17.841 9.183 L 19.515 9.183 Z " fill="rgb(255,218,68)"/><path d=" M 15.982 4.319 L 15.464 5.912 L 16.819 6.896 L 15.144 6.896 L 14.627 8.488 L 14.11 6.896 L 12.435 6.896 L 13.79 5.912 L 13.272 4.319 L 14.627 5.303 L 15.982 4.319 Z " fill="rgb(255,218,68)"/></g></g></svg>