<?xml version="1.0" standalone="no"?><!-- Generator: Gravit.io --><svg xmlns="http://www.w3.org/2000/svg" xmlns:xlink="http://www.w3.org/1999/xlink" style="isolation:isolate" viewBox="0 0 25 25" width="25" height="25"><defs><clipPath id="_clipPath_a0ECOIejLXtRKA1MpHTh7mxDgpGDiW6u"><rect width="25" height="25"/></clipPath></defs><g clip-path="url(#_clipPath_a0ECOIejLXtRKA1MpHTh7mxDgpGDiW6u)"><path d=" M 0 12.5 C 0 5.601 5.601 0 12.5 0 C 19.399 0 25 5.601 25 12.5 C 25 19.399 19.399 25 12.5 25 C 5.601 25 0 19.399 0 12.5 Z " fill="rgb(240,240,240)"/><g id="Group"><path d=" M 12.5 9.239 L 24.569 9.239 C 24.256 8.076 23.78 6.981 23.165 5.978 L 12.5 5.978 L 12.5 9.239 Z " fill="rgb(51,138,243)"/><path d=" M 4.719 22.283 L 20.281 22.283 C 21.422 21.374 22.4 20.27 23.165 19.022 L 1.835 19.022 C 2.6 20.27 3.578 21.374 4.719 22.283 Z " fill="rgb(51,138,243)"/><path d=" M 4.348 3.024 C 3.365 3.871 2.516 4.867 1.835 5.978 L 4.348 5.978 L 4.348 3.024 Z " fill="rgb(51,138,243)"/><path d=" M 12.5 12.5 C 12.5 11.227 12.5 10.161 12.5 9.239 L 7.609 9.239 L 7.609 12.5 L 4.348 12.5 L 4.348 9.239 L 0.431 9.239 C 0.15 10.279 0 11.372 0 12.5 C 0 13.628 0.15 14.721 0.431 15.761 L 24.569 15.761 C 24.85 14.721 25 13.628 25 12.5 L 12.5 12.5 Z " fill="rgb(51,138,243)"/><path d=" M 12.5 0 C 10.764 0 9.111 0.354 7.609 0.994 L 7.609 5.978 L 12.5 5.978 C 12.5 4.84 12.5 3.872 12.5 2.717 L 20.281 2.717 C 18.146 1.017 15.442 0 12.5 0 Z " fill="rgb(51,138,243)"/></g></g></svg>