<?xml version="1.0" standalone="no"?><!-- Generator: Gravit.io --><svg xmlns="http://www.w3.org/2000/svg" xmlns:xlink="http://www.w3.org/1999/xlink" style="isolation:isolate" viewBox="0 0 25 25" width="25" height="25"><defs><clipPath id="_clipPath_CYrijTpHE7PVSAA8aGJYhPm0KKqUAdLL"><rect width="25" height="25"/></clipPath></defs><g clip-path="url(#_clipPath_CYrijTpHE7PVSAA8aGJYhPm0KKqUAdLL)"><path d=" M 0 12.5 C 0 5.601 5.601 0 12.5 0 C 19.399 0 25 5.601 25 12.5 C 25 19.399 19.399 25 12.5 25 C 5.601 25 0 19.399 0 12.5 Z " fill="rgb(240,240,240)"/><path d=" M 12.5 0 C 7.544 0 3.262 2.884 1.24 7.065 L 23.76 7.065 C 21.738 2.884 17.456 0 12.5 0 Z " fill="rgb(255,152,17)"/><path d=" M 12.5 25 C 17.456 25 21.738 22.116 23.76 17.935 L 1.24 17.935 C 3.262 22.116 7.544 25 12.5 25 Z " fill="rgb(109,165,68)"/><path d=" M 8.152 12.5 C 8.152 10.1 10.1 8.152 12.5 8.152 C 14.9 8.152 16.848 10.1 16.848 12.5 C 16.848 14.9 14.9 16.848 12.5 16.848 C 10.1 16.848 8.152 14.9 8.152 12.5 Z " fill="rgb(0,82,180)"/><path d=" M 9.783 12.5 C 9.783 11 11 9.783 12.5 9.783 C 14 9.783 15.217 11 15.217 12.5 C 15.217 14 14 15.217 12.5 15.217 C 11 15.217 9.783 14 9.783 12.5 Z " fill="rgb(240,240,240)"/><path d=" M 12.5 9.147 L 13.338 11.048 L 15.404 10.823 L 14.177 12.5 L 15.404 14.177 L 13.338 13.952 L 12.5 15.853 L 11.662 13.952 L 9.596 14.177 L 10.823 12.5 L 9.596 10.823 L 11.662 11.048 L 12.5 9.147 Z " fill="rgb(0,82,180)"/></g></svg>