<?xml version="1.0" standalone="no"?><!-- Generator: Gravit.io --><svg xmlns="http://www.w3.org/2000/svg" xmlns:xlink="http://www.w3.org/1999/xlink" style="isolation:isolate" viewBox="0 0 25 25" width="25" height="25"><defs><clipPath id="_clipPath_SNMukcjSeoXFIEl5lnHzXSN1xvZVyzne"><rect width="25" height="25"/></clipPath></defs><g clip-path="url(#_clipPath_SNMukcjSeoXFIEl5lnHzXSN1xvZVyzne)"><path d=" M 0 12.5 C 0 5.601 5.601 0 12.5 0 C 19.399 0 25 5.601 25 12.5 C 25 19.399 19.399 25 12.5 25 C 5.601 25 0 19.399 0 12.5 Z " fill="rgb(240,240,240)"/><path d=" M 25 12.5 C 25 7.544 22.116 3.262 17.935 1.24 L 17.935 23.76 C 22.116 21.738 25 17.456 25 12.5 Z " fill="rgb(216,0,39)"/><g id="Group"><path d=" M 0 12.5 C 0 17.456 2.884 21.738 7.065 23.76 L 7.065 1.24 C 2.884 3.262 0 7.544 0 12.5 Z " fill="rgb(109,165,68)"/><path d=" M 9.239 12.5 C 9.239 14.301 10.699 15.761 12.5 15.761 C 14.301 15.761 15.761 14.301 15.761 12.5 L 15.761 11.413 L 9.239 11.413 L 9.239 12.5 Z " fill="rgb(109,165,68)"/></g><path d=" M 16.848 10.326 L 13.587 10.326 C 13.587 9.726 13.1 9.239 12.5 9.239 C 11.9 9.239 11.413 9.726 11.413 10.326 L 8.152 10.326 C 8.152 10.926 8.675 11.413 9.275 11.413 L 9.239 11.413 C 9.239 12.013 9.726 12.5 10.326 12.5 C 10.326 13.1 10.813 13.587 11.413 13.587 L 13.587 13.587 C 14.187 13.587 14.674 13.1 14.674 12.5 C 15.274 12.5 15.761 12.013 15.761 11.413 L 15.725 11.413 C 16.325 11.413 16.848 10.926 16.848 10.326 Z " fill="rgb(255,152,17)"/></g></svg>