<?xml version="1.0" standalone="no"?><!-- Generator: Gravit.io --><svg xmlns="http://www.w3.org/2000/svg" xmlns:xlink="http://www.w3.org/1999/xlink" style="isolation:isolate" viewBox="0 0 25 25" width="25" height="25"><defs><clipPath id="_clipPath_l3vD4UupKP53J8ZYAAd8gTzItN0j5Rxi"><rect width="25" height="25"/></clipPath></defs><g clip-path="url(#_clipPath_l3vD4UupKP53J8ZYAAd8gTzItN0j5Rxi)"><path d=" M 0 12.5 C 0 5.601 5.601 0 12.5 0 C 19.399 0 25 5.601 25 12.5 C 25 19.399 19.399 25 12.5 25 C 5.601 25 0 19.399 0 12.5 Z " fill="rgb(216,0,39)"/><path d=" M 19.887 10.258 L 14.244 10.258 L 12.5 4.891 L 10.756 10.258 L 5.113 10.258 L 9.678 13.575 L 7.934 18.942 L 12.5 15.625 L 17.066 18.942 L 15.322 13.575 L 19.887 10.258 Z  M 10.956 13.16 L 11.546 11.345 L 13.454 11.345 L 14.044 13.16 L 14.044 13.16 L 14.044 13.16 L 12.5 14.282 L 10.956 13.16 L 10.956 13.16 L 10.956 13.16 Z  M 13.101 10.258 L 11.899 10.258 L 12.5 8.409 L 13.101 10.258 Z  M 14.968 12.488 L 14.597 11.345 L 16.542 11.345 L 14.968 12.488 Z  M 10.403 11.345 L 10.032 12.488 L 8.458 11.345 L 10.403 11.345 Z  M 10.002 16.097 L 10.603 14.247 L 11.575 14.954 L 10.002 16.097 Z  M 13.425 14.954 L 14.397 14.247 L 14.998 16.097 L 13.425 14.954 Z " fill="rgb(255,218,68)"/></g></svg>