<?xml version="1.0" standalone="no"?><!-- Generator: Gravit.io --><svg xmlns="http://www.w3.org/2000/svg" xmlns:xlink="http://www.w3.org/1999/xlink" style="isolation:isolate" viewBox="0 0 25 25" width="25" height="25"><defs><clipPath id="_clipPath_WwMeb7d5iukDi8P898HXuF6MeO6rq2fQ"><rect width="25" height="25"/></clipPath></defs><g clip-path="url(#_clipPath_WwMeb7d5iukDi8P898HXuF6MeO6rq2fQ)"><path d=" M 0 12.5 C 0 5.601 5.601 0 12.5 0 C 19.399 0 25 5.601 25 12.5 C 25 19.399 19.399 25 12.5 25 C 5.601 25 0 19.399 0 12.5 Z " fill="rgb(240,240,240)"/><path d=" M 16.848 12.5 C 16.848 13.587 14.901 16.304 12.5 16.304 C 10.099 16.304 8.152 13.587 8.152 12.5 C 8.152 10.099 10.099 8.152 12.5 8.152 C 14.901 8.152 16.848 10.099 16.848 12.5 Z " fill="rgb(216,0,39)"/><path d=" M 16.848 12.5 C 16.848 14.901 14.901 16.848 12.5 16.848 C 10.099 16.848 8.152 14.901 8.152 12.5" fill="rgb(0,82,180)"/><rect x="17.257" y="15.607" width="1.63" height="1.087" transform="matrix(0.707,-0.707,0.707,0.707,-6.127,17.509)" fill="rgb(0,0,0)"/><rect x="15.335" y="17.529" width="1.63" height="1.087" transform="matrix(0.707,-0.707,0.707,0.707,-8.049,16.713)" fill="rgb(0,0,0)"/><rect x="19.563" y="17.913" width="1.63" height="1.087" transform="matrix(0.707,-0.707,0.707,0.707,-7.082,19.815)" fill="rgb(0,0,0)"/><rect x="17.641" y="19.835" width="1.63" height="1.087" transform="matrix(0.707,-0.707,0.707,0.707,-9.004,19.019)" fill="rgb(0,0,0)"/><rect x="18.41" y="16.76" width="1.63" height="1.087" transform="matrix(0.707,-0.707,0.707,0.707,-6.605,18.662)" fill="rgb(0,0,0)"/><rect x="16.489" y="18.682" width="1.63" height="1.087" transform="matrix(0.707,-0.707,0.707,0.707,-8.526,17.867)" fill="rgb(0,0,0)"/><rect x="16.091" y="6.192" width="4.348" height="1.087" transform="matrix(-0.707,-0.707,0.707,-0.707,26.418,24.413)" fill="rgb(0,0,0)"/><rect x="15.336" y="6.384" width="1.63" height="1.087" transform="matrix(-0.707,-0.707,0.707,-0.707,22.673,23.247)" fill="rgb(0,0,0)"/><rect x="17.257" y="8.306" width="1.63" height="1.087" transform="matrix(-0.707,-0.707,0.707,-0.707,24.594,27.886)" fill="rgb(0,0,0)"/><rect x="17.641" y="4.079" width="1.63" height="1.087" transform="matrix(-0.707,-0.707,0.707,-0.707,28.238,20.941)" fill="rgb(0,0,0)"/><rect x="19.563" y="6" width="1.63" height="1.087" transform="matrix(-0.707,-0.707,0.707,-0.707,30.161,25.58)" fill="rgb(0,0,0)"/><rect x="3.409" y="18.874" width="4.348" height="1.087" transform="matrix(0.707,0.707,-0.707,0.707,15.365,1.74)" fill="rgb(0,0,0)"/><rect x="6.881" y="18.681" width="1.63" height="1.087" transform="matrix(0.707,0.707,-0.707,0.707,15.848,0.189)" fill="rgb(0,0,0)"/><rect x="4.959" y="16.76" width="1.63" height="1.087" transform="matrix(0.707,0.707,-0.707,0.707,13.927,0.985)" fill="rgb(0,0,0)"/><rect x="5.714" y="16.568" width="4.348" height="1.087" transform="matrix(0.707,0.707,-0.707,0.707,14.41,-0.566)" fill="rgb(0,0,0)"/><rect x="3.409" y="5.039" width="4.348" height="1.087" transform="matrix(-0.707,0.707,-0.707,-0.707,13.478,5.583)" fill="rgb(0,0,0)"/><rect x="4.561" y="6.192" width="4.348" height="1.087" transform="matrix(-0.707,0.707,-0.707,-0.707,16.26,6.735)" fill="rgb(0,0,0)"/><rect x="5.715" y="7.345" width="4.348" height="1.087" transform="matrix(-0.707,0.707,-0.707,-0.707,19.045,7.888)" fill="rgb(0,0,0)"/></g></svg>