<?xml version="1.0" standalone="no"?><!-- Generator: Gravit.io --><svg xmlns="http://www.w3.org/2000/svg" xmlns:xlink="http://www.w3.org/1999/xlink" style="isolation:isolate" viewBox="0 0 25 25" width="25" height="25"><defs><clipPath id="_clipPath_0PUrjHSCbL53cWQAJiz48pqkcLEJwoTc"><rect width="25" height="25"/></clipPath></defs><g clip-path="url(#_clipPath_0PUrjHSCbL53cWQAJiz48pqkcLEJwoTc)"><g id="Group"><path d=" M 0 12.5 C 0 5.601 5.601 0 12.5 0 C 12.5 0 12.5 0 12.5 0 C 19.399 0 25 5.601 25 12.5 C 25 19.399 19.399 25 12.5 25 C 12.5 25 12.5 25 12.5 25 C 5.601 25 0 19.399 0 12.5 Z " fill="rgb(218,37,29)"/><path d=" M 12.5 5.013 L 14.682 9.463 L 19.566 10.188 L 16.045 13.65 L 16.876 18.563 L 12.5 16.25 L 8.124 18.563 L 8.955 13.65 L 5.434 10.188 L 10.318 9.463 L 12.5 5.013 Z " fill="rgb(255,255,0)"/></g></g></svg>